<?xml version="1.0" encoding="UTF-8"?>
<svg width="24px" height="24px" viewBox="0 0 24 24" version="1.1" xmlns="http://www.w3.org/2000/svg" xmlns:xlink="http://www.w3.org/1999/xlink">
    <title>新增-功能区</title>
    <g id="页面-1" stroke="none" stroke-width="1" fill="none" fill-rule="evenodd">
        <g id="切图" transform="translate(-423.000000, -25.000000)" fill-rule="nonzero">
            <g id="新增" transform="translate(423.000000, 25.000000)">
                <path d="M4.98395973,2.99060422 C4.45528898,2.99060422 3.9482712,3.20061785 3.57444453,3.57444453 C3.20061785,3.9482712 2.99060422,4.45528898 2.99060422,4.98395973 L2.99060422,18.9440926 C2.99060422,19.4727633 3.20061785,19.9797811 3.57444453,20.3536078 C3.9482712,20.7274345 4.45528898,20.9374481 4.98395973,20.9374481 L18.9440926,20.9374481 C19.4727633,20.9374481 19.9797811,20.7274345 20.3536078,20.3536078 C20.7274345,19.9797811 20.9374481,19.4727633 20.9374481,18.9440926 L20.9374481,4.98395973 C20.9374481,4.45528898 20.7274345,3.9482712 20.3536078,3.57444453 C19.9797811,3.20061785 19.4727633,2.99060422 18.9440926,2.99060422 L4.98395973,2.99060422 Z M5.98395973,0.00389326853 L17.9440926,0.00389326853 C19.5301048,0.00389326853 21.0511581,0.633934166 22.1726382,1.75541417 C23.2941182,2.87689418 23.9241591,4.39794749 23.9241591,5.98395973 L23.9241591,17.9440926 C23.9241591,19.5301048 23.2941182,21.0511581 22.1726382,22.1726382 C21.0511581,23.2941182 19.5301048,23.9241591 17.9440926,23.9241591 L5.98395973,23.9241591 C4.39794749,23.9241591 2.87689418,23.2941182 1.75541417,22.1726382 C0.633934166,21.0511581 0.00389326853,19.5301048 0.00389326853,17.9440926 L0.00389326853,5.98395973 C0.00389326853,4.39794749 0.633934166,2.87689418 1.75541417,1.75541417 C2.87689418,0.633934166 4.39794749,0.00389326853 5.98395973,0.00389326853 Z" id="形状" fill="#8493AB"></path>
                <path d="M10.3693418,10.3693418 L10.3693418,7.97731521 C10.3693418,7.09659534 11.0833063,6.38263081 11.9640262,6.38263081 C12.844746,6.38263081 13.5587106,7.09659534 13.5587106,7.97731521 L13.5587106,10.3693418 L15.9507371,10.3693418 C16.831457,10.3693418 17.5454215,11.0833063 17.5454215,11.9640262 C17.5454215,12.844746 16.831457,13.5587106 15.9507371,13.5587106 L13.5587106,13.5587106 L13.5587106,15.9507371 C13.5587106,16.831457 12.844746,17.5454215 11.9640262,17.5454215 C11.0833063,17.5454215 10.3693418,16.831457 10.3693418,15.9507371 L10.3693418,13.5587106 L7.97731521,13.5587106 C7.09659534,13.5587106 6.38263081,12.844746 6.38263081,11.9640262 C6.38263081,11.0833063 7.09659534,10.3693418 7.97731521,10.3693418 L10.3693418,10.3693418 Z" id="路径" fill="#68A2FD"></path>
            </g>
        </g>
    </g>
</svg>