<?xml version="1.0" encoding="UTF-8"?>
<svg width="24px" height="24px" viewBox="0 0 24 24" version="1.1" xmlns="http://www.w3.org/2000/svg" xmlns:xlink="http://www.w3.org/1999/xlink">
    <title>新增-功能区备份 3</title>
    <g id="页面-1" stroke="none" stroke-width="1" fill="none" fill-rule="evenodd">
        <g id="切图" transform="translate(-663.000000, -25.000000)" fill-rule="nonzero">
            <g id="编组-11" transform="translate(663.000000, 25.000000)">
                <g id="删除" transform="translate(2.000000, 0.000000)">
                    <path d="M16.8112362,23.0514706 L3.10776654,23.0514706 C2.24322151,23.0514706 1.5423943,22.3759191 1.5423943,21.5487132 L1.5423943,8.765625 L3.42084099,8.765625 L3.42084099,21.2454044 L16.4981618,21.2454044 L16.4981618,8.76838235 L18.3766085,8.76838235 L18.3766085,21.5487132 C18.3766085,22.3759191 17.6757813,23.0514706 16.8112362,23.0514706 L16.8112362,23.0514706 Z" id="路径" fill="#BF5CFF"></path>
                    <path d="M15.8633961,3.98161765 L13.9849494,3.98161765 L13.9849494,2.46507353 C13.9849494,2.109375 13.683364,1.81985294 13.3128447,1.81985294 L6.60328585,1.81985294 C6.23276654,1.81985294 5.93118107,2.109375 5.93118107,2.46507353 L5.93118107,3.97058824 L4.05273438,3.97058824 L4.05273438,1.08639706 C4.05273438,0.554227941 4.51803768,0.0137867647 5.4084329,0.0137867647 L14.5076976,0.0137867647 C15.3980928,0.0137867647 15.8633961,0.551470588 15.8633961,1.08639706 L15.8633961,3.98161765 L15.8633961,3.98161765 Z" id="路径" fill="#8493AB"></path>
                    <path d="M18.9654182,7.14981618 L0.953584559,7.14981618 C0.436580882,7.14981618 0.0143612132,6.74448529 0.0143612132,6.24816176 C0.0143612132,5.75183824 0.436580882,5.34650735 0.953584559,5.34650735 L18.9654182,5.34650735 C19.4824219,5.34650735 19.9046415,5.75183824 19.9046415,6.24816176 C19.9046415,6.74448529 19.4824219,7.14981618 18.9654182,7.14981618 Z" id="路径" fill="#BF5CFF"></path>
                    <path d="M7.45346967,18.0386029 C6.93646599,18.0386029 6.51424632,17.6332721 6.51424632,17.1369485 L6.51424632,10.8722426 C6.51424632,10.3759191 6.93646599,9.97058824 7.45346967,9.97058824 C7.97047335,9.97058824 8.39269301,10.3759191 8.39269301,10.8722426 L8.39269301,17.1369485 C8.39269301,17.6332721 7.97047335,18.0386029 7.45346967,18.0386029 Z M12.4655331,18.0386029 C11.9485294,18.0386029 11.5263097,17.6332721 11.5263097,17.1369485 L11.5263097,10.8722426 C11.5263097,10.3759191 11.9485294,9.97058824 12.4655331,9.97058824 C12.9825368,9.97058824 13.4047564,10.3759191 13.4047564,10.8722426 L13.4047564,17.1369485 C13.4047564,17.6332721 12.9825368,18.0386029 12.4655331,18.0386029 Z" id="形状" fill="#8493AB"></path>
                </g>
            </g>
        </g>
    </g>
</svg>