<?xml version="1.0" encoding="UTF-8"?>
<svg width="24px" height="24px" viewBox="0 0 24 24" version="1.1" xmlns="http://www.w3.org/2000/svg" xmlns:xlink="http://www.w3.org/1999/xlink">
    <title>新增-功能区备份</title>
    <g id="页面-1" stroke="none" stroke-width="1" fill="none" fill-rule="evenodd">
        <g id="切图" transform="translate(-503.000000, -25.000000)" fill-rule="nonzero">
            <g id="编组-10" transform="translate(503.000000, 25.000000)">
                <g id="编辑-(2)" transform="translate(2.000000, 0.000000)">
                    <path d="M7.52647783,15.7669643 L16.4506158,6.89208745 C16.7777093,6.5669643 16.8368227,5.89307266 16.6752463,5.73149631 L14.2713054,3.34725986 C13.9920698,3.09900045 13.5712307,3.09900045 13.2919951,3.34725986 L4.14716748,12.4250924 L4.16687193,15.7689347 L7.52647783,15.7669643 Z M8.82697045,18.9196737 L1.02795566,18.9216441 L0.990517241,11.1206589 L11.069335,1.10883621 C12.5783776,-0.362160477 14.9849229,-0.362160477 16.4939655,1.10883621 L18.8979064,3.4950431 C20.3954433,4.98666872 20.1609606,7.64873769 18.6732759,9.12854065 L8.82697045,18.9196737 L8.82697045,18.9196737 Z" id="形状" fill="#8493AB"></path>
                    <path d="M1.58559114,23.8477525 C1.02236477,23.8478261 0.501890645,23.5473907 0.220256205,23.0596346 C-0.0613782344,22.5718785 -0.0613782344,21.970917 0.220256205,21.4831609 C0.501890645,20.9954049 1.02236477,20.6949695 1.58559114,20.6950431 L18.3343596,20.6950431 C18.897586,20.6949695 19.4180601,20.9954049 19.6996945,21.4831609 C19.981329,21.970917 19.981329,22.5718785 19.6996945,23.0596346 C19.4180601,23.5473907 18.897586,23.8478261 18.3343596,23.8477525 L1.58559114,23.8477525 Z" id="路径" fill="#50D290"></path>
                </g>
            </g>
        </g>
    </g>
</svg>