<?xml version="1.0" encoding="UTF-8"?>
<svg width="24px" height="24px" viewBox="0 0 24 24" version="1.1" xmlns="http://www.w3.org/2000/svg" xmlns:xlink="http://www.w3.org/1999/xlink">
    <title>新增-功能区备份 2</title>
    <g id="页面-1" stroke="none" stroke-width="1" fill="none" fill-rule="evenodd">
        <g id="切图" transform="translate(-583.000000, -25.000000)">
            <g id="编组-9" transform="translate(583.000000, 25.000000)">
                <g id="编组-3" transform="translate(2.000000, 3.000000)">
                    <path d="M1.625,-1 L8,-1 L8,19 L1.625,19 C0.900126266,19 0.243876266,18.7061869 -0.231155301,18.2311553 C-0.706186867,17.7561237 -1,17.0998737 -1,16.375 L-1,16.375 L-1,1.625 C-1,0.900126266 -0.706186867,0.243876266 -0.231155301,-0.231155301 C0.243876266,-0.706186867 0.900126266,-1 1.625,-1 L1.625,-1 Z" id="矩形" stroke="#8493AB" stroke-width="2"></path>
                    <path d="M18.375,-1 C19.0998737,-1 19.7561237,-0.706186867 20.2311553,-0.231155301 C20.7061869,0.243876266 21,0.900126266 21,1.625 L21,1.625 L21,16.375 C21,17.0998737 20.7061869,17.7561237 20.2311553,18.2311553 C19.7561237,18.7061869 19.0998737,19 18.375,19 L18.375,19 L12,19 L12,-1 Z" id="矩形备份" stroke="#8493AB" stroke-width="2"></path>
                    <path d="M6,9 L2,4 L2,14 L6,9 Z M14,9 L18,14 L18,4 L14,9 Z" id="形状" fill="#7C7961" fill-rule="nonzero"></path>
                </g>
            </g>
        </g>
    </g>
</svg>