<?xml version="1.0" encoding="UTF-8"?>
<svg width="66px" height="66px" viewBox="0 0 66 66" version="1.1" xmlns="http://www.w3.org/2000/svg" xmlns:xlink="http://www.w3.org/1999/xlink">
    <g id="页面-1" stroke="none" stroke-width="1" fill="none" fill-rule="evenodd">
        <g id="【SCRUM-2516】优化“复用系统计划”icon" transform="translate(-212.000000, -288.000000)" fill-rule="nonzero">
            <g id="可视化-矢量图标" transform="translate(212.000000, 288.000000)">
                <rect id="矩形" fill="#000000" opacity="0" x="0" y="0" width="66" height="66"></rect>
                <path d="M33.1478949,58.4571429 L11.4230895,44.6385931 L5.65714286,20.1034837 L27.3371021,8.48571429 L61.2857143,27.535199 L33.1478949,58.4571429 Z M13.2105329,43.3259615 L32.7955315,55.7861661 L57.9991247,28.077231 L27.3114756,10.8497573 L8.01477435,21.1875476 L13.2105329,43.3259615 Z" id="形状" fill="#60647A"></path>
                <polygon id="路径" fill="#60647A" points="29.2285714 33.9428571 6.6 22.0897592 7.56168201 20.280028 27.1051259 30.5159193 26.6920544 10.416351 28.7509575 10.3714286"></polygon>
                <polygon id="路径" fill="#60647A" points="31.4248241 56.5714286 26.4 30.8658301 59.1742377 27.3428571 59.4 29.3623552 28.838233 32.6432432 33.4437842 56.1828185"></polygon>
                <polygon id="路径" fill="#60647A" points="11.3142857 43.5586194 27.0195057 31.1142857 28.2857143 32.812742 12.5804943 45.2571429"></polygon>
                <path d="M27.6104115,34.8793908 C28.7871333,34.9522277 29.9133272,34.3917607 30.5647669,33.4091121 C31.2162067,32.4264635 31.293923,31.1709211 30.7686411,30.1154356 C30.2433591,29.0599501 29.1948816,28.3648747 28.0181599,28.2920378 C26.8414382,28.2192008 25.7152443,28.7796679 25.0638045,29.7623165 C24.4123648,30.7449651 24.3346484,32.0005075 24.8599304,33.055993 C25.3852123,34.1114785 26.4336898,34.8065538 27.6104115,34.8793908 Z" id="路径" fill="#FFFFFF"></path>
                <path d="M28.2857143,35.8285714 C28.2074352,35.8285714 28.1291561,35.8285714 28.0508771,35.8220473 C25.9764816,35.6915651 24.3913304,33.897435 24.5217955,31.8227683 C24.6522606,29.7481015 26.4396328,28.1627429 28.5205515,28.2932251 C30.5949469,28.4237073 32.1800982,30.2178373 32.0496331,32.2925041 C31.9191679,34.2823575 30.2557376,35.8285714 28.2857143,35.8285714 Z M28.1422027,34.3345504 C29.4011911,34.4128397 30.4840516,33.4537956 30.5623307,32.1946425 C30.6406097,30.9354894 29.6816911,29.8524872 28.4227027,29.7741979 C27.1637142,29.6959086 26.0808537,30.6549527 26.0025747,31.9141058 C25.9242956,33.1732589 26.8832142,34.2562611 28.1422027,34.3345504 Z" id="形状" fill="#3CD459"></path>
                <path d="M58.7246491,31.107872 C60.5436749,31.2204666 62.1095629,29.8371336 62.2221577,28.0181112 C62.3347526,26.1990888 60.9514169,24.6332038 59.1323911,24.5206092 C57.9556877,24.4477732 56.8295113,25.0082326 56.1780817,25.9908677 C55.5266521,26.9735029 55.4489369,28.2290281 55.9742107,29.2844992 C56.4994845,30.3399703 57.5479457,31.0350361 58.7246491,31.107872 L58.7246491,31.107872 Z" id="路径" fill="#3CD459"></path>
                <path d="M26.6675544,13.1936765 C27.8442761,13.2665135 28.97047,12.7060464 29.6219098,11.7233978 C30.2733495,10.7407492 30.3510659,9.48520682 29.8257839,8.42972129 C29.300502,7.37423575 28.2520244,6.67916045 27.0753027,6.60632353 C25.898581,6.53348656 24.7723871,7.09395363 24.1209474,8.0766022 C23.4695076,9.05925078 23.3917912,10.3147932 23.9170732,11.3702787 C24.4423552,12.4257642 25.4908327,13.1208395 26.6675544,13.1936765 Z" id="路径" fill="#3CD459"></path>
                <path d="M33.2675607,59.3935864 C35.0865582,59.5061795 36.6524218,58.1228654 36.765015,56.3038679 C36.8776081,54.4848703 35.494294,52.9190067 33.6752964,52.8064136 C31.8562989,52.6938205 30.2904353,54.0771346 30.1778422,55.8961321 C30.0652491,57.7151297 31.4485632,59.2809933 33.2675607,59.3935864 L33.2675607,59.3935864 Z" id="路径" fill="#3CD459"></path>
                <path d="M12.5247517,47.1365337 C13.7014551,47.2093697 14.8276315,46.6489103 15.4790611,45.6662752 C16.1304908,44.68364 16.208206,43.4281148 15.6829322,42.3726437 C15.1576584,41.3171726 14.1091972,40.6221068 12.9324938,40.5492708 C11.113468,40.4366762 9.54758001,41.8200092 9.43498515,43.6390316 C9.32239029,45.458054 10.7057259,47.023939 12.5247517,47.1365337 L12.5247517,47.1365337 Z" id="路径" fill="#3CD459"></path>
                <path d="M4.73822362,23.5475721 C5.5718007,24.3812752 6.78685194,24.7069053 7.92562964,24.4017873 C9.06440734,24.0966693 9.95388169,23.2071639 10.25896,22.0683755 C10.5640382,20.9295872 10.2383657,19.7145473 9.40463352,18.8809993 C8.57105645,18.0472962 7.35600521,17.7216661 6.2172275,18.0267841 C5.0784498,18.3319021 4.18897545,19.2214075 3.88389719,20.3601959 C3.57881893,21.4989842 3.9044914,22.7140241 4.73822362,23.5475721 Z" id="路径" fill="#3CD459"></path>
            </g>
        </g>
    </g>
</svg>
