<?xml version="1.0" encoding="UTF-8"?>
<svg width="12px" height="12px" viewBox="0 0 12 12" version="1.1" xmlns="http://www.w3.org/2000/svg" xmlns:xlink="http://www.w3.org/1999/xlink">
    <!-- Generator: Sketch 59 (86127) - https://sketch.com -->
    <title>说明-浅色</title>
    <desc>Created with Sketch.</desc>
    <g id="行销公司" stroke="none" stroke-width="1" fill="none" fill-rule="evenodd" opacity="0.8">
        <g id="YNGM-1913-门店调整日志" transform="translate(-692.000000, -92.000000)" fill-rule="nonzero">
            <g id="编组-45" transform="translate(43.000000, 81.000000)">
                <g id="标题栏">
                    <g id="说明-浅色" transform="translate(649.000000, 11.000000)">
                        <rect id="矩形" fill="#000000" opacity="0" x="0" y="0" width="12" height="12"></rect>
                        <path d="M6,0.666666667 C3.05448133,0.666666667 0.666666667,3.05448133 0.666666667,6 C0.666666667,8.94551867 3.05448133,11.3333333 6,11.3333333 C8.94551867,11.3333333 11.3333333,8.94551867 11.3333333,6 C11.3333333,3.05448133 8.94551867,0.666666667 6,0.666666667 Z M6.03809524,9.04761905 C5.72545559,9.04764684 5.47083519,8.79642138 5.46666667,8.48380952 C5.47077014,8.16993367 5.72421938,7.91648443 6.03809524,7.91238095 C6.3507071,7.91654948 6.60193255,8.17116988 6.60190476,8.48380952 C6.60190476,8.79519293 6.34947864,9.04761905 6.03809524,9.04761905 L6.03809524,9.04761905 Z M6.99809524,5.81714286 C6.69947936,6.05245968 6.49642951,6.38816877 6.42666667,6.76190476 L6.42666667,7.14285714 C6.37807775,7.31295236 6.22261331,7.43022585 6.04571429,7.43022585 C5.86881526,7.43022585 5.71335082,7.31295236 5.6647619,7.14285714 L5.6647619,6.85333333 C5.73306143,6.2893691 6.02040616,5.77488522 6.4647619,5.42095238 C6.85238698,5.10954765 7.10816828,4.66329093 7.18095238,4.17142857 C7.20452749,3.88058391 7.0986554,3.59414238 6.89158969,3.38854521 C6.68452398,3.18294805 6.39733617,3.07911735 6.10666667,3.1047619 C5.3447619,3.1047619 4.91809524,3.6 4.8952381,4.52952381 C4.87591241,4.72203063 4.71535744,4.86947908 4.52190476,4.87238095 C4.32998815,4.86910204 4.17183142,4.72083011 4.15619048,4.52952381 L4.15619048,4.47619048 C4.11295794,3.94412519 4.30341136,3.41958493 4.67794091,3.03920335 C5.05247046,2.65882178 5.57399509,2.46025934 6.10666667,2.4952381 C6.56970197,2.45285887 7.02840675,2.61303476 7.36441399,2.93443299 C7.70042123,3.25583122 7.88081582,3.70696777 7.85904762,4.17142857 C7.81149261,4.81531241 7.49990991,5.41090412 6.99809524,5.81714286 L6.99809524,5.81714286 Z" id="形状" fill="#999999"></path>
                    </g>
                </g>
            </g>
        </g>
    </g>
</svg>