<?xml version="1.0" encoding="UTF-8"?>
<svg width="16px" height="15px" viewBox="0 0 16 15" version="1.1" xmlns="http://www.w3.org/2000/svg" xmlns:xlink="http://www.w3.org/1999/xlink">
    <!-- Generator: Sketch 59 (86127) - https://sketch.com -->
    <title>对比</title>
    <desc>Created with Sketch.</desc>
    <g id="行销公司" stroke="none" stroke-width="1" fill-rule="evenodd">
        <g id="4.6、计划列表-已创建计划" transform="translate(-1149.000000, -265.000000)">
            <g id="对比" transform="translate(1149.000000, 265.000000)">
                <path d="M5.59505988,0 L5.59505988,1.59680638 L3.1998503,1.59680638 C2.31921158,1.59680638 1.60304392,2.31297405 1.60304392,3.19361278 L1.60304392,11.1776447 C1.60304392,12.0582834 2.31921158,12.7744511 3.1998503,12.7744511 L5.59505988,12.7744511 L5.59505988,14.3712575 L3.1998503,14.3712575 C1.43857285,14.3712575 0.00623751871,12.9389222 0.00623751871,11.1776447 L0.00623751871,3.19361278 C0.00623751871,1.43233533 1.43857285,0 3.1998503,0 L5.59505988,0 Z M12.7806886,0 C14.5419661,0 15.9743014,1.43233533 15.9743014,3.19361278 L15.9743014,11.1776447 C15.9743014,12.9389222 14.5419661,14.3712575 12.7806886,14.3712575 L10.385479,14.3712575 L10.385479,12.7744511 L12.7806886,12.7744511 C13.6613273,12.7744511 14.377495,12.0582834 14.377495,11.1776447 L14.377495,3.19361278 C14.377495,2.31297406 13.6613273,1.5968064 12.7806886,1.59680638 L10.385479,1.59680638 L10.385479,0 L12.7806886,0 Z M8.78867266,0 L8.78867266,14.3712575 L7.19186626,14.3712575 L7.19186626,0 L8.78867266,0 Z" id="形状"></path>
            </g>
        </g>
    </g>
</svg>