<?xml version="1.0" encoding="UTF-8"?>
<svg width="16px" height="16px" viewBox="0 0 16 16" version="1.1" xmlns="http://www.w3.org/2000/svg" xmlns:xlink="http://www.w3.org/1999/xlink">
    <title>购物</title>
    <g id="控件" stroke="none" stroke-width="1" fill="none" fill-rule="evenodd">
        <g id="左侧面板" transform="translate(-26.000000, -326.000000)" fill-rule="nonzero">
            <g id="购物" transform="translate(26.000000, 326.000000)">
                <rect id="矩形" fill="#000000" opacity="0" x="0" y="0" width="16" height="16"></rect>
                <path d="M6.1640625,16 C5.32403125,16 4.640625,15.3165938 4.640625,14.4765625 C4.640625,13.6365313 5.32403125,12.953125 6.1640625,12.953125 C7.00409375,12.953125 7.6875,13.6365313 7.6875,14.4765625 C7.6875,15.3165938 7.00409375,16 6.1640625,16 Z M12.1171875,16 C11.2771562,16 10.59375,15.3165938 10.59375,14.4765625 C10.59375,13.6365313 11.2771562,12.953125 12.1171875,12.953125 C12.9572187,12.953125 13.640625,13.6365313 13.640625,14.4765625 C13.640625,15.3165938 12.9572187,16 12.1171875,16 Z M13.0802812,12.0924531 C13.0564375,12.0924531 13.035125,12.0915313 13.0167344,12.0901875 L6.27975,12.0901875 C5.65020312,12.0901875 5.10735937,11.8549063 4.66626562,11.3909063 C4.303625,11.0094063 4.01185937,10.4764531 3.77435937,9.76157813 C3.3601875,8.51484375 3.17084375,6.9113125 2.97040625,5.213625 C2.93503125,4.9140625 2.89846875,4.60428125 2.86101562,4.30098437 C2.72103125,3.16714062 2.3505,2.36148437 1.78946875,1.971125 C1.22775,1.58029687 0.63646875,1.70546875 0.630640625,1.7068125 C0.361890625,1.77035937 0.092546875,1.60401562 0.029015625,1.33528125 C-0.034515625,1.0665625 0.131828125,0.797203125 0.4005625,0.733671875 C0.442046875,0.723875 1.42729687,0.50090625 2.360625,1.15028125 C2.97864062,1.58028125 3.41720312,2.27289062 3.67015625,3.21557812 C3.6738125,3.2155 3.67735937,3.21542187 3.68109375,3.21548437 L14.4135312,3.23789062 C15.0010937,3.23789062 15.3512187,3.47757812 15.5412656,3.67864062 C15.9701875,4.13242188 15.9487656,4.74557812 15.9449062,4.814 L15.9437187,4.83514063 L15.9407656,4.85609375 C15.9378125,4.877125 15.6357656,6.98776563 15.0616406,9.43153125 C14.7976875,10.5549063 14.4112969,11.3367656 13.9131406,11.7553281 C13.5705156,12.0431719 13.2556094,12.0924531 13.0802812,12.0924531 Z" id="形状" fill="#FF9900"></path>
            </g>
        </g>
    </g>
</svg>