<?xml version="1.0" encoding="UTF-8"?>
<svg width="16px" height="16px" viewBox="0 0 16 16" version="1.1" xmlns="http://www.w3.org/2000/svg" xmlns:xlink="http://www.w3.org/1999/xlink">
    <title>酒杯，酒，器皿，高脚杯，庆祝，香槟</title>
    <g id="控件" stroke="none" stroke-width="1" fill="none" fill-rule="evenodd">
        <g id="左侧面板" transform="translate(-183.000000, -327.000000)" fill-rule="nonzero">
            <g id="编组-41" transform="translate(15.000000, 276.000000)">
                <g id="编组-37" transform="translate(168.000000, 49.000000)">
                    <g id="编组-24" transform="translate(0.000000, 0.000000)">
                        <g id="酒杯，酒，器皿，高脚杯，庆祝，香槟" transform="translate(0.000000, 2.000000)">
                            <rect id="矩形" fill="#000000" opacity="0" x="0" y="0" width="16" height="16"></rect>
                            <path d="M14.6,3.8 L11,7.4 C10.3,8 9.7,8.7 9.1,9.4 C8.9,9.6 8.8,9.9 8.8,10.2 L8.8,13.6 C8.8,14 8.9,14.1 9.3,14.2 C9.7,14.3 10.1,14.4 10.4,14.5 C10.7,14.7 10.9,15 11.2,15.2 C11.2,15.3 11.1,15.3 11.1,15.4 L5.1,15.4 C5.3,15.1 5.5,14.8 5.7,14.7 C6,14.5 6.4,14.3 6.8,14.3 C7.5,14.2 7.7,13.9 7.6,13.2 L7.6,10.4 C7.6,10.1 7.4,9.7 7.2,9.4 C5.4,7.6 3.8,6 2.1,4.4 C1.9,4.2 1.6,4.1 1.4,3.9 C1.5,3.8 1.5,3.7 1.6,3.6 C1.9,3.6 2.2,3.5 2.6,3.5 C1.9,3 1.6,2.5 1.9,1.6 C1.9,1.5 1.5,1.2 1.5,1 C1.4,0.8 1.5,0.6 1.5,0.4 C1.7,0.4 2,0.4 2.1,0.5 C2.3,0.8 2.6,1 3.1,1 C3.8,1 4.3,1.7 4.2,2.5 C4.2,3.3 4.4,3.5 5.2,3.5 L13.9,3.5 C14.1,3.5 14.4,3.5 14.6,3.6 L14.6,3.8 Z M5.6,4.5 C5.6,4.6 5.5,4.6 5.5,4.7 C5.7,4.8 5.9,5 6.1,5 L11.8,5 C12,5 12.3,4.8 12.5,4.7 C12.5,4.7 12.5,4.6 12.4,4.6 C10.2,4.5 7.9,4.5 5.6,4.5 L5.6,4.5 Z" id="形状" fill="#5CADFF"></path>
                        </g>
                    </g>
                </g>
            </g>
        </g>
    </g>
</svg>