<?xml version="1.0" encoding="UTF-8"?>
<svg width="16px" height="16px" viewBox="0 0 16 16" version="1.1" xmlns="http://www.w3.org/2000/svg" xmlns:xlink="http://www.w3.org/1999/xlink">
    <title>购物</title>
    <g id="控件" stroke="none" stroke-width="1" fill="none" fill-rule="evenodd">
        <g id="左侧面板" transform="translate(-26.000000, -326.000000)" fill-rule="nonzero">
            <g id="购物" transform="translate(26.000000, 326.000000)">
                <rect id="矩形" fill="#000000" opacity="0" x="0" y="0" width="16" height="16"></rect>
                <path d="M3.88125,14.1240234 C3.12539063,13.3681641 3.43652344,11.840625 4.19941406,11.0794922 L12.1798828,3.09902344 C12.9498047,2.32910156 14.5986328,2.15683594 15.2244141,2.78085937 C15.8484375,3.40488281 15.6761719,5.05546875 14.9080078,5.82539063 L6.92753906,13.8058594 C6.16464844,14.56875 4.63710937,14.8798828 3.88125,14.1240234 Z M3.92519531,12.2853516 L2.10410156,10.4642578 C1.69628906,10.0564453 1.603125,9.43945312 1.87207031,8.9296875 C2.14101562,8.41992188 2.70351562,8.14921875 3.27128906,8.25644531 L6.70253906,8.8734375 C6.91523437,8.91210938 7.08925781,9.06328125 7.1578125,9.2671875 C7.22636719,9.47109375 7.17714844,9.69785156 7.02949219,9.85605469 L4.77246094,12.2712891 C4.66347656,12.3873047 4.51230469,12.4558594 4.35234375,12.4576172 C4.19238281,12.4611328 4.03769531,12.3978516 3.92519531,12.2853516 L3.92519531,12.2853516 Z M7.59023438,15.9503906 L5.76914063,14.1292969 C5.65664063,14.0167969 5.59511719,13.8638672 5.59683835,13.7056641 C5.59863281,13.5474609 5.66542969,13.3962891 5.7796875,13.2855469 L8.09648438,11.0742188 C8.25117188,10.9265625 8.47265625,10.8738281 8.67832031,10.9371094 C8.88222656,11.0003906 9.03691406,11.1691406 9.08085938,11.3783203 L9.79980469,14.7691406 C9.79980469,14.7726563 9.8015625,14.7779297 9.8015625,14.7814453 C9.90878906,15.3492188 9.63808594,15.9099609 9.12832031,16.1806641 C8.61503906,16.4513672 7.99804688,16.3582031 7.59023438,15.9503906 L7.59023438,15.9503906 Z M13.2662109,13.3101563 L9.92636719,9.9703125 C9.69609375,9.74003906 9.69609375,9.36738281 9.92636719,9.13710938 L12.8355469,6.22792969 C12.9673828,6.09609375 13.1554688,6.03457031 13.3400391,6.06269531 C13.5246094,6.09082031 13.6863281,6.20507813 13.7724609,6.3703125 L16.1771484,10.9335938 C16.59375,11.7228516 16.4496094,12.6773438 15.8167969,13.3101563 C15.1154297,14.0150391 13.9693359,14.0150391 13.2662109,13.3101563 L13.2662109,13.3101563 Z M8.03320312,8.07890625 L4.69335938,4.7390625 C3.99023438,4.0359375 3.99023438,2.88984375 4.69335938,2.18671875 C5.32441406,1.55566406 6.27890625,1.41152344 7.06992188,1.82636719 L11.6332031,4.23105469 C11.7984375,4.31894531 11.9126953,4.47890625 11.9408203,4.66347656 C11.9689453,4.84804688 11.9074219,5.03613281 11.7755859,5.16796875 L8.86816406,8.07890625 C8.63789063,8.30917969 8.26347656,8.30917969 8.03320312,8.07890625 Z" id="形状" fill="#5CADFF"></path>
            </g>
        </g>
    </g>
</svg>