<?xml version="1.0" encoding="UTF-8"?>
<svg width="16px" height="16px" viewBox="0 0 16 16" version="1.1" xmlns="http://www.w3.org/2000/svg" xmlns:xlink="http://www.w3.org/1999/xlink">
    <!-- Generator: Sketch 59 (86127) - https://sketch.com -->
    <title>门店调整日志</title>
    <desc>Created with Sketch.</desc>
    <g id="行销公司" stroke="none" stroke-width="1" fill="none" fill-rule="evenodd">
        <g id="4.6、计划列表-已创建计划" transform="translate(-1158.000000, -266.000000)">
            <g id="门店调整日志" transform="translate(1158.000000, 266.000000)">
                <path d="M5,2 L15.2,2 C15.6418278,2 16,2.3581722 16,2.8 C16,3.2418278 15.6418278,3.6 15.2,3.6 L5,3.6 L5,3.6 L5,2 Z" id="矩形" fill="#666666"></path>
                <path d="M5,8.8 L15.2,8.8 C15.6418278,8.8 16,9.1581722 16,9.6 C16,10.0418278 15.6418278,10.4 15.2,10.4 L5,10.4 L5,10.4 L5,8.8 Z" id="矩形备份-35" fill="#666666"></path>
                <path d="M5,12.2 L12.2,12.2 C12.6418278,12.2 13,12.5581722 13,13 C13,13.4418278 12.6418278,13.8 12.2,13.8 L5,13.8 L5,13.8 L5,12.2 Z" id="矩形备份-36" fill="#666666"></path>
                <path d="M5,5.4 L12.2,5.4 C12.6418278,5.4 13,5.7581722 13,6.2 C13,6.6418278 12.6418278,7 12.2,7 L5,7 L5,7 L5,5.4 Z" id="矩形备份-34" fill="#666666"></path>
                <circle id="椭圆形" stroke="#666666" cx="2" cy="4.5" r="1.5"></circle>
                <circle id="椭圆形备份" stroke="#666666" cx="2" cy="10.5" r="1.5"></circle>
                <path d="M2.6,12 L2.6,15.4 C2.6,15.7313708 2.33137085,16 2,16 C1.66862915,16 1.4,15.7313708 1.4,15.4 L1.4,12 L2.6,12 Z M2.6,6 L2.6,9 L1.4,9 L1.4,6 L2.6,6 Z M2,0 C2.33137085,-6.08718376e-17 2.6,0.26862915 2.6,0.6 L2.6,3 L1.4,3 L1.4,0.6 C1.4,0.26862915 1.66862915,6.08718376e-17 2,0 Z" id="形状结合" fill="#666666"></path>
            </g>
        </g>
    </g>
</svg>