<?xml version="1.0" encoding="UTF-8"?>
<svg width="50px" height="49px" viewBox="0 0 50 49" version="1.1" xmlns="http://www.w3.org/2000/svg" xmlns:xlink="http://www.w3.org/1999/xlink">
    <g id="页面-1" stroke="none" stroke-width="1" fill="none" fill-rule="evenodd">
        <g id="【SCRUM-2516】优化“复用系统计划”icon" transform="translate(-617.000000, -298.000000)" fill-rule="nonzero">
            <g id="编组-6" transform="translate(617.000000, 298.000000)">
                <g id="复用系统计划" transform="translate(11.000000, 11.588107)">
                    <path d="M25.0965625,0 L9.3728125,0 C7.76948166,0 6.46944019,1.2527704 6.46875,2.79883929 L6.46875,6.20758929 L2.5,6.20758929 C1.11928813,6.20758929 0,7.28690284 0,8.61830357 L0,24.5892857 C0,25.9206865 1.11928813,27 2.5,27 L19.0625,27 C20.4432119,27 21.5625,25.9206865 21.5625,24.5892857 L21.5625,20.7924107 L25.0965625,20.7924107 C26.7001373,20.7922443 28,19.5386704 28,17.9923661 L28,2.79883929 C27.9993099,1.25300574 26.6996493,0 25.0965625,0 L25.0965625,0 Z M19.0625,25.1919643 L2.5,25.1919643 C2.15482203,25.1919643 1.875,24.9221359 1.875,24.5892857 L1.875,8.61830357 C1.875,8.28545339 2.15482203,8.015625 2.5,8.015625 L19.0625,8.015625 C19.407678,8.015625 19.6875,8.28545339 19.6875,8.61830357 L19.6875,24.5892857 C19.6875,24.9221359 19.407678,25.1919643 19.0625,25.1919643 Z M26.15625,17.9923661 C26.15625,18.5402375 25.6956629,18.984375 25.1275,18.984375 L21.59375,18.984375 L21.59375,8.61830357 C21.59375,7.28690284 20.4744619,6.20758929 19.09375,6.20758929 L8.34375,6.20758929 L8.34375,2.79883929 C8.34375,2.25096788 8.80433706,1.80683036 9.3725,1.80683036 L25.1278125,1.80683036 C25.6958534,1.80683036 26.15625,2.25108554 26.15625,2.79883929 L26.15625,17.9923661 Z" id="形状" fill="#FA8466"></path>
                    <path d="M15.0795742,14 L6.93852525,14 C6.45352267,14 6.03754323,14.35 6.00257151,14.8096667 C5.98345382,15.0524222 6.07156669,15.2917766 6.24573611,15.4702116 C6.41990552,15.6486465 6.66438539,15.7500304 6.92042585,15.75 L15.0614748,15.75 C15.5464773,15.75 15.9624568,15.4 15.9974285,14.9403333 C16.0165462,14.6975778 15.9284333,14.4582234 15.7542639,14.2797884 C15.5800945,14.1013535 15.3356146,13.9999696 15.0795742,14 L15.0795742,14 Z M15.0795742,19.25 L6.93852525,19.25 C6.45352267,19.25 6.03754323,19.6 6.00257151,20.0596667 C5.98345382,20.3024222 6.07156669,20.5417766 6.24573611,20.7202116 C6.41990552,20.8986465 6.66438539,21.0000304 6.92042585,21 L15.0614748,21 C15.5464773,21 15.9624568,20.65 15.9974285,20.1903333 C16.0165462,19.9475778 15.9284333,19.7082234 15.7542639,19.5297884 C15.5800945,19.3513535 15.3356146,19.2499696 15.0795742,19.25 L15.0795742,19.25 Z" id="形状" fill="#5F6379"></path>
                </g>
                <g id="编组-4" fill="#263554">
                    <path d="M3.13516583,27.0903906 C2.93985333,26.7468409 2.44546856,26.7407061 2.24405254,27.0842558 L1.15762676,28.9615094 L0.0712009825,30.838763 C-0.130215033,31.1823127 0.120029107,31.6178846 0.516757623,31.6178846 L2.67740215,31.6240194 L4.83804669,31.6301542 C5.2347752,31.6301542 5.48501934,31.2007171 5.28970684,30.8571674 L4.21548809,28.9676442 L3.13516583,27.0903906 L3.13516583,27.0903906 Z M47.2330662,21.0107882 C47.0377537,21.3543379 46.543369,21.3604727 46.3419529,21.016923 L45.2555272,19.1396694 L44.1691014,17.256281 C43.9676854,16.9127313 44.2179295,16.4771594 44.614658,16.4771594 L46.7753025,16.4710246 L48.9359471,16.4648898 C49.3326756,16.4648898 49.5829197,16.8943269 49.3876072,17.2378766 L48.3133885,19.1273998 L47.2330662,21.0107882 L47.2330662,21.0107882 Z" id="形状"></path>
                    <g id="形状-2" transform="translate(1.820518, 0.000000)">
                        <path d="M45.1562009,18.0722115 C44.7899899,18.0722115 44.4542966,17.8390885 44.3383298,17.4709996 C41.3964352,8.00497893 32.4364743,1.52661355 22.560986,1.72292765 C12.9357419,1.91310693 4.5434079,8.24423674 1.66865204,17.4709996 C1.52827118,17.9249759 1.04609344,18.1765034 0.600536803,18.0354026 C0.148876646,17.8943018 -0.101367494,17.4096514 0.0390133652,16.9618099 C0.783642271,14.5753665 1.8883786,12.3238892 3.32880829,10.2687259 C4.75092743,8.23810193 6.46601532,6.44673574 8.43134735,4.94370589 C12.5084958,1.81494988 17.3852048,0.109471117 22.5304684,0.00517925017 C25.2099118,-0.0500340912 27.8466306,0.336459298 30.373486,1.15238979 C32.8148923,1.94378101 35.1098141,3.11553081 37.191113,4.64309992 C39.2479977,6.15226459 41.0485348,7.97430485 42.5377927,10.0540074 C44.0514645,12.164384 45.205029,14.4833443 45.974072,16.955675 C46.1144528,17.4096514 45.8642087,17.888167 45.4125485,18.0292678 C45.3270993,18.0599419 45.2416501,18.0722115 45.1562009,18.0722115 Z M23.0004391,48.3659315 C20.4918942,48.3659315 18.0199704,47.9794381 15.6457028,47.2125861 C13.2042966,46.4211949 10.9093747,45.2494451 8.82807587,43.721876 C6.7711911,42.2127113 4.97065399,40.390671 3.48139618,38.3109685 C1.9677243,36.2005919 0.81415985,33.8816316 0.0451168809,31.4093008 C-0.0952639785,30.9553245 0.154980162,30.4768089 0.606640318,30.3357081 C1.05830047,30.1946073 1.53437469,30.4461348 1.67475555,30.9001111 C4.61665008,40.3661318 13.576611,46.8444972 23.4520993,46.6481831 C33.0773434,46.4580038 41.4696774,40.126874 44.3444333,30.9001111 C44.4848141,30.4461348 44.9669919,30.1946073 45.4125485,30.3357081 C45.8642087,30.4768089 46.1144528,30.9614593 45.974072,31.4093008 C45.229189,33.79821 44.1193378,36.0562011 42.684277,38.1023848 C41.2621579,40.1330088 39.54707,41.924375 37.581738,43.4274048 C33.5045895,46.5561608 28.6278806,48.2616396 23.4826169,48.3659315 C23.3239255,48.3597966 23.1591306,48.3659315 23.0004391,48.3659315 L23.0004391,48.3659315 Z" id="形状"></path>
                    </g>
                </g>
            </g>
        </g>
    </g>
</svg>
