<?xml version="1.0" encoding="UTF-8"?>
<svg width="14px" height="14px" viewBox="0 0 14 14" version="1.1" xmlns="http://www.w3.org/2000/svg" xmlns:xlink="http://www.w3.org/1999/xlink">
    <title>编组</title>
    <g id="页面-1" stroke="none" stroke-width="1" fill="none" fill-rule="evenodd">
        <g id="切图" transform="translate(-416.000000, -104.000000)" fill="#C972FF" fill-rule="nonzero">
            <g id="编组-13" transform="translate(416.000000, 104.000000)">
                <g id="编组" transform="translate(1.000000, 1.000000)">
                    <path d="M11.8878505,3.17045454 C11.8878505,3.13636364 11.8878505,3.10227272 11.8504673,3.10227273 L10.8411215,0.784090909 C10.6542056,0.30681818 10.1682243,0 9.57009346,0 L2.46728972,0 C1.86915888,0.0340909053 1.38317757,0.30681818 1.23364486,0.784090909 L0.149532717,3.13636364 L0.149532717,3.20454546 C0.0373831854,3.40909091 0,3.61363637 0,3.85227273 C0,4.67045454 0.485981314,5.38636364 1.27102804,5.76136364 C1.60747663,5.93181819 1.98130842,6 2.39252337,6 C3.10280375,6 3.77570094,5.72727272 4.22429907,5.21590909 C4.6728972,5.69318182 5.30841122,5.96590909 6.01869159,6 C6.72897197,6 7.36448599,5.72727272 7.81308411,5.21590909 C8.26168223,5.69318182 8.93457943,6 9.64485982,6 C10.0934579,6 10.4672897,5.93181818 10.7663551,5.76136364 C11.5140187,5.38636364 12,4.63636363 12,3.85227273 C12,3.61363637 11.9626168,3.375 11.8878505,3.17045454 Z" id="形状"></path>
                    <path d="M11,6.84076433 C11,6.61146497 10.8201439,6.38216561 10.5683453,6.38216561 C10.5323741,6.38216561 10.4964029,6.38216561 10.4604317,6.42038217 C10.1366907,6.53503185 9.7410072,6.61146497 9.45323741,6.61146497 C8.8057554,6.57324842 8.30215828,6.42038217 7.79856115,6 C7.33093525,6.42038217 6.71942447,6.68789809 6.07194244,6.68789809 C5.42446042,6.68789809 4.81294964,6.49681528 4.34532374,6.07643312 C3.87769783,6.49681529 3.26618705,6.72611465 2.58273381,6.72611465 C2.18705035,6.72611465 1.97122302,6.64968153 1.61151079,6.49681529 L1.53956834,6.49681529 L1.43165467,6.49681529 C1.21582734,6.49681529 1,6.6878981 1,6.95541402 L1,10.8535032 C1,11.4649682 1.4676259,12 2.07913669,12 L9.92086331,12 C10.4964029,12 11,11.5031847 11,10.8535032 L11,6.84076433 Z" id="路径"></path>
                </g>
            </g>
        </g>
    </g>
</svg>