<?xml version="1.0" encoding="UTF-8"?>
<svg width="10px" height="13px" viewBox="0 0 10 13" version="1.1" xmlns="http://www.w3.org/2000/svg" xmlns:xlink="http://www.w3.org/1999/xlink">
    <title>上升 copy 6备份</title>
    <g id="页面-1" stroke="none" stroke-width="1" fill="none" fill-rule="evenodd">
        <g id="切图" transform="translate(-443.000000, -153.000000)" fill="#ED3F14" fill-rule="nonzero">
            <g id="上升-copy-6备份" transform="translate(443.000000, 153.000000)">
                <path d="M0,12.1253721 L0.216991211,12.4915448 C6.05586321,13.5014581 7.38945507,9.77282569 7.31712467,5.34620487 L9.55665484,5.33264291 C9.71344728,5.33667472 9.85680752,5.24456577 9.91830688,5.10028149 C9.97471716,4.95490833 9.93836114,4.78988053 9.8260856,4.68166927 L6.06219212,0.108579362 C5.9068046,-0.0389574357 5.6621377,-0.0357486898 5.51067278,0.115812401 L1.91133097,4.7277799 C1.84001522,4.80077307 1.80009912,4.89877847 1.80012297,5.00082717 C1.80243519,5.10381775 1.8462956,5.20149682 1.92173083,5.27165329 C1.99716606,5.34180976 2.097765,5.37848113 2.20065259,5.37332877 L4.40040106,5.35976681 C4.46640255,9.71315311 3.3823506,11.8930107 0,12.124468 L0,12.1253721 Z" id="路径"></path>
            </g>
        </g>
    </g>
</svg>