<?xml version="1.0" encoding="UTF-8"?>
<svg width="14px" height="14px" viewBox="0 0 14 14" version="1.1" xmlns="http://www.w3.org/2000/svg" xmlns:xlink="http://www.w3.org/1999/xlink">
    <title>形状</title>
    <g id="页面-1" stroke="none" stroke-width="1" fill="none" fill-rule="evenodd">
        <g id="切图" transform="translate(-598.000000, -104.000000)" fill="#FE9901" fill-rule="nonzero">
            <g id="编组-15" transform="translate(598.000000, 104.000000)">
                <path d="M0,11.8585517 L13,11.8585517 L13,13 L0,13 L0,11.8585517 Z M0.874033333,1 L0.874033333,11.8585517 L7.97188889,11.8585517 L7.97188889,1 L0.874033333,1 Z M3.81636667,9.28064243 C3.81636667,9.45181741 3.69777778,9.56593407 3.52054444,9.56593407 L2.33884444,9.56593407 C2.16175556,9.56593407 2.04302222,9.45181741 2.04302222,9.28064243 L2.04302222,8.70991829 C2.04302222,8.53874331 2.16161111,8.42462666 2.33884444,8.42462666 L3.52054444,8.42462666 C3.69763333,8.42462666 3.81636667,8.53874331 3.81636667,8.70991829 L3.81636667,9.28064243 Z M3.81636667,7.00084531 C3.81636667,7.17202029 3.69777778,7.28627782 3.52054444,7.28627782 L2.33884444,7.28627782 C2.16175556,7.28627782 2.04302222,7.17216117 2.04302222,7.00084531 L2.04302222,6.43012116 C2.04302222,6.25894618 2.16161111,6.14468864 2.33884444,6.14468864 L3.52054444,6.14468864 C3.69763333,6.14468864 3.81636667,6.2588053 3.81636667,6.43012116 L3.81636667,7.00084531 Z M3.81636667,4.71949845 C3.81636667,4.89067343 3.69777778,5.00479008 3.52054444,5.00479008 L2.33884444,5.00479008 C2.16175556,5.00479008 2.04302222,4.89067343 2.04302222,4.71949845 L2.04302222,4.1487743 C2.04302222,3.97759932 2.16161111,3.86348267 2.33884444,3.86348267 L3.52054444,3.86348267 C3.69763333,3.86348267 3.81636667,3.97759932 3.81636667,4.1487743 L3.81636667,4.71949845 Z M6.76967778,9.28064243 C6.76967778,9.45181741 6.65108889,9.56593407 6.47385556,9.56593407 L5.29215556,9.56593407 C5.11506667,9.56593407 4.99633333,9.45181741 4.99633333,9.28064243 L4.99633333,8.70991829 C4.99633333,8.53874331 5.11492222,8.42462666 5.29215556,8.42462666 L6.47385556,8.42462666 C6.65094444,8.42462666 6.76967778,8.53874331 6.76967778,8.70991829 L6.76967778,9.28064243 Z M6.76967778,7.00084531 C6.76967778,7.17202029 6.65108889,7.28627782 6.47385556,7.28627782 L5.29215556,7.28627782 C5.11506667,7.28627782 4.99633333,7.17216117 4.99633333,7.00084531 L4.99633333,6.43012116 C4.99633333,6.25894618 5.11492222,6.14468864 5.29215556,6.14468864 L6.47385556,6.14468864 C6.65094444,6.14468864 6.76967778,6.2588053 6.76967778,6.43012116 L6.76967778,7.00084531 Z M6.76967778,4.71949845 C6.76967778,4.89067343 6.65108889,5.00479008 6.47385556,5.00479008 L5.29215556,5.00479008 C5.11506667,5.00479008 4.99633333,4.89067343 4.99633333,4.71949845 L4.99633333,4.1487743 C4.99633333,3.97759932 5.11492222,3.86348267 5.29215556,3.86348267 L6.47385556,3.86348267 C6.65094444,3.86348267 6.76967778,3.97759932 6.76967778,4.1487743 L6.76967778,4.71949845 Z M8.56353333,3.8779938 L8.56353333,11.8585517 L12.1084889,11.8585517 L12.1084889,3.8779938 L8.56353333,3.8779938 Z M11.2006556,9.28064243 C11.2006556,9.45181741 11.0820667,9.56593407 10.9048333,9.56593407 L9.72313333,9.56593407 C9.5459,9.56593407 9.42716667,9.45181741 9.42716667,9.28064243 L9.42716667,8.70991829 C9.42716667,8.53874331 9.54575556,8.42462666 9.72313333,8.42462666 L10.9048333,8.42462666 C11.0819222,8.42462666 11.2006556,8.53874331 11.2006556,8.70991829 L11.2006556,9.28064243 Z M11.2006556,7.00084531 C11.2006556,7.17202029 11.0820667,7.28627782 10.9048333,7.28627782 L9.72313333,7.28627782 C9.5459,7.28627782 9.42716667,7.17216117 9.42716667,7.00084531 L9.42716667,6.43012116 C9.42716667,6.25894618 9.54575556,6.14468864 9.72313333,6.14468864 L10.9048333,6.14468864 C11.0819222,6.14468864 11.2006556,6.2588053 11.2006556,6.43012116 L11.2006556,7.00084531 Z" id="形状"></path>
            </g>
        </g>
    </g>
</svg>