<?xml version="1.0" encoding="UTF-8"?>
<svg width="14px" height="14px" viewBox="0 0 14 14" version="1.1" xmlns="http://www.w3.org/2000/svg" xmlns:xlink="http://www.w3.org/1999/xlink">
    <title>编组</title>
    <g id="页面-1" stroke="none" stroke-width="1" fill="none" fill-rule="evenodd">
        <g id="切图" transform="translate(-510.000000, -104.000000)" fill="#5FAEFF" fill-rule="nonzero">
            <g id="编组" transform="translate(510.000000, 104.000000)">
                <path d="M2.35719524,10.6428011 C1.73545871,10.0210582 1.99138281,8.76455928 2.61890294,8.13847866 L9.18328397,1.57403066 C9.81658769,0.940720476 11.1728409,0.799020938 11.6875809,1.31232029 C12.200875,1.82561963 12.0591769,3.18333256 11.4273191,3.81664274 L4.86293804,10.3810907 C4.23541792,11.0086173 2.97893177,11.264544 2.35719524,10.6428011 Z" id="路径"></path>
                <path d="M1.95128685,9.42963073 L0.340070512,7.82380422 C-0.0207424138,7.46419829 -0.103169505,6.9201393 0.134780399,6.47063188 C0.372730303,6.02112446 0.870403305,5.78242052 1.37274199,5.87697208 L4.4085473,6.42103106 C4.5967299,6.45513163 4.75069749,6.58843383 4.81135139,6.7682368 C4.87200528,6.94803976 4.82845889,7.14799307 4.69781973,7.28749537 L2.70090681,9.41723053 C2.60448267,9.51953222 2.47073305,9.57998322 2.32920729,9.58153324 C2.18768153,9.58463329 2.05082145,9.52883237 1.95128685,9.42963073 L1.95128685,9.42963073 Z M5.19393751,12.6614341 L3.58272116,11.0556076 C3.48318656,10.9564059 3.42875358,10.8215537 3.43027638,10.6820514 C3.43186403,10.5425491 3.4909627,10.4092469 3.59205253,10.3115953 L5.64184321,8.3616631 C5.77870328,8.23146095 5.97466203,8.18496019 6.15662372,8.24076111 C6.33703018,8.29656203 6.47389026,8.44536448 6.51277096,8.62981753 L7.14885926,11.6198169 C7.14885926,11.6229169 7.15041449,11.627567 7.15041449,11.6306671 C7.24528341,12.1313253 7.00577828,12.6257835 6.55476212,12.8644874 C6.1006355,13.1031914 5.55475043,13.02104 5.19393751,12.6614341 L5.19393751,12.6614341 Z M10.2157691,10.3332957 L7.26083569,7.38824703 C7.0571008,7.18519368 7.0571008,6.85658826 7.26083569,6.6535349 L9.83473824,4.08824255 C9.95138035,3.97199063 10.1177898,3.91773974 10.2810887,3.94254015 C10.4443877,3.96734056 10.5874687,4.06809222 10.6636748,4.21379462 L12.7912269,8.23766106 C13.159816,8.93362255 13.0322873,9.77528644 12.4724052,10.3332957 C11.8518691,10.9548559 10.8378604,10.9548559 10.2157691,10.3332957 L10.2157691,10.3332957 Z M5.58585499,5.7204195 L2.63092155,2.77537088 C2.0088303,2.15536064 2.0088303,1.14474396 2.63092155,0.524733721 C3.18924845,-0.031725466 4.03373732,-0.158827564 4.73358998,0.206978475 L8.7709622,2.32741348 C8.91715365,2.40491476 9.01824348,2.54596709 9.04312713,2.70871978 C9.06801078,2.87147246 9.01357779,3.0373252 8.89693568,3.15357712 L6.32458836,5.7204195 C6.12085347,5.92347285 5.78958988,5.92347285 5.58585499,5.7204195 Z" id="形状"></path>
            </g>
        </g>
    </g>
</svg>